<?xml version="1.0" standalone="no"?>
<!DOCTYPE svg PUBLIC "-//W3C//DTD SVG 1.1//EN" "http://www.w3.org/Graphics/SVG/1.1/DTD/svg11.dtd">
<svg xmlns="http://www.w3.org/2000/svg" xmlns:xlink="http://www.w3.org/1999/xlink" version="1.1" id="Layer_1" x="0px" y="0px" viewBox="0 0 3000 3000" style="enable-background:new 0 0 3000 3000;" xml:space="preserve" width="3000" height="3000">
<circle cx="909.69" cy="1451.62" r="156.04"/>
<path d="M1748.54,1237.78c-12.3-4.58-17.62-19.1-11.24-30.57c14.7-26.4,28.91-53.04,42.58-79.93  c121.4-238.42,168.25-427.09,181.71-490.47c2.62-12.34-5.56-24.35-17.99-26.48l-126.75-21.64c-11.67-1.99-22.85,5.5-25.41,17.06  c-12.82,57.99-57.34,232.19-168.75,449.33c-9.74,18.98-20.16,38.62-31.3,58.81c-23.96-28.41-58.09-48.4-97.8-53.91  c-85.36-11.84-164.15,47.76-175.99,133.13c-10.89,78.5,38.65,151.44,113.07,171.87c-9.78,13.31-19.83,26.71-30.18,40.18  c-61.18,79.66-132.31,161.67-214.64,242.88c-55.74,54.99-116.64,109.58-183.11,162.84c-47.49,38.07-97.84,75.46-151.18,111.81  c-9.76,6.65-12.41,19.9-5.83,29.72l72.18,107.98c6.61,9.89,20.04,12.56,29.87,5.87c31.27-21.28,61.99-43.16,92.15-65.65  c6.15-4.59,14.93-2.53,18.36,4.33c87.66,175.63,265.93,299.53,475.49,307.62c305.8,11.8,564.17-227.38,575.97-533.14  C2119.22,1534.02,1967.07,1319.16,1748.54,1237.78z M1940.26,1772.87c-8.19,212.32-187.61,378.38-399.94,370.18  c-157.2-6.06-289.05-105.99-343.55-243.63c-4.5-11.36-1.32-24.28,7.85-32.35c93.92-82.7,181.2-171.8,261.14-266.59  c54.36-64.52,105.39-131.7,152.84-201.17c8-11.72,22.6-17.19,36.31-13.52C1824.85,1431.28,1947.32,1589.85,1940.26,1772.87z"/>
</svg>